<svg xmlns="http://www.w3.org/2000/svg" version="1.1" xmlns:xlink="http://www.w3.org/1999/xlink" xmlns:svgjs="http://svgjs.dev/svgjs" width="2000" height="1892" viewBox="0 0 2000 1892"><g transform="matrix(1,0,0,1,-0.41612258661962187,0.7674063986468127)"><svg viewBox="0 0 261 247" data-background-color="#ffffff" preserveAspectRatio="xMidYMid meet" height="1892" width="2000" xmlns="http://www.w3.org/2000/svg" xmlns:xlink="http://www.w3.org/1999/xlink"><g id="tight-bounds" transform="matrix(1,0,0,1,0.05430399755385906,-0.09997365579206985)"><svg viewBox="0 0 260.8912953672317 247.2" height="247.2" width="260.8912953672317"><g><svg viewBox="0 0 260.8912953672317 247.2" height="247.2" width="260.8912953672317"><g><svg viewBox="0 0 260.8912953672317 247.2" height="247.2" width="260.8912953672317"><g id="textblocktransform"><svg viewBox="0 0 260.8912953672317 247.2" height="247.2" width="260.8912953672317" id="textblock"><g><svg viewBox="0 0 260.8912953672317 247.2" height="247.2" width="260.8912953672317"><path d="M260.28 53.02C259.054 27.36 255.558 20.227 255.558 20.227 244.827-6.202 231.433-0.506 219.401 3.292 198.158 3.446 177.001 9.091 155.807 12.119 111.321 12.581 66.456 4.986 22.191 23.717 18.033 29.464-4.314 24.846 0.74 56.304 2.064 69.39 6.897 83.913 6.749 95.922 7.412 98.026 8.332 93.202 8.724 96.23 10.098 104.39 12.342 100.541 14.182 105.365 11.619 118.246 13.458 128.971 15.212 140.21 12.122 143.135 8.16 141.749 6.381 151.449 6.198 158.479 5.204 157.145 4.112 156.837 3.315 156.632 1.709 157.402 1.978 159.608 2.898 167.152-1.051 171.514 1.426 178.904-0.278 186.91 2.604 193.838 2.211 202.511 2.162 204.255 2.432 205.744 2.861 206.154 4.763 208.361 1.991 212.672 2.285 217.342 21.786 249.262 42.944 227.195 62.923 241.872 68.112 231.608 64.211 245.516 66.284 243.36 67.903 240.846 69.08 251.263 70.908 245.362 71.19 243.668 70.761 239.665 71.767 240.435 72.294 240.846 72.76 240.743 72.834 238.382 72.944 234.841 71.975 237.048 71.717 235.201 74.502 225.861 73.815 248.081 76.427 247.158 76.305 244.438 75.544 240.538 77.102 241.051 78.647 237.151 78.696 233.918 80.07 242.693 80.119 244.592 80.364 245.926 80.757 246.85 85.05 237.305 89.318 250.237 93.819 245.926 96.579 241.205 99.228 248.492 102.024 246.696 103.006 245.259 103.999 242.693 104.944 247.004 116.509 247.928 128.836 244.079 139.801 247.158 169.102 241.41 200.415 249.518 231.31 241.923 238.596 238.998 246.163 234.841 253.265 231.506 253.265 231.506 259.017 222.371 259.017 181.316S260.244 145.393 260.428 112.703C260.612 80.013 261.47 78.679 260.244 53.02Z" opacity="1" fill="#ff5c40" data-fill-palette-color="tertiary"></path><g transform="matrix(1,0,0,1,55.76832000000002,26.230666666666668)"><svg width="149.35465536723166" viewBox="2.5 -35.400001525878906 27.149999618530273 35.400001525878906" height="194.73866666666666" data-palette-color="#ffffff"><path d="M16.4 0Q15.1 0 14.05-0.63 13-1.25 12.4-2.4L12.4-2.4Q11-5.05 6.85-18.65L6.85-18.65Q4.35-27.15 4.55-26.55L4.55-26.55Q3.7-29.3 2.6-33.2L2.6-33.2Q2.5-33.6 2.5-33.75L2.5-33.75Q2.5-34.45 3.13-34.93 3.75-35.4 4.55-35.4L4.55-35.4Q5.85-35.4 6.15-34.45L6.15-34.45Q7.75-29.2 8.7-25.65L8.7-25.65 10.55-19.3Q12.5-12.85 13.5-9.88 14.5-6.9 15.13-5.78 15.75-4.65 16.35-4.65L16.35-4.65Q17-4.7 17.57-5.78 18.15-6.85 19.05-9.73 19.95-12.6 21.8-19.3L21.8-19.3 25.85-34.35Q26.2-35.3 27.55-35.3L27.55-35.3Q28.45-35.3 29.05-34.83 29.65-34.35 29.65-33.6L29.65-33.6Q29.65-33.3 29.6-33.15L29.6-33.15Q28.4-28.6 26.4-21.6L26.4-21.6 25.6-18.8Q21.75-5.25 20.4-2.4L20.4-2.4Q19.9-1.3 18.8-0.65 17.7 0 16.4 0L16.4 0Z" opacity="1" transform="matrix(1,0,0,1,0,0)" fill="#ffffff" class="undefined-text-0" data-fill-palette-color="quaternary" id="text-0"></path></svg></g></svg></g></svg></g></svg></g><g></g></svg></g><defs></defs></svg><rect width="260.8912953672317" height="247.2" fill="none" stroke="none" visibility="hidden"></rect></g></svg></g></svg>